<?xml version="1.0" encoding="utf-8"?>
<!-- Generator: Adobe Illustrator 16.0.0, SVG Export Plug-In . SVG Version: 6.00 Build 0)  -->
<!DOCTYPE svg PUBLIC "-//W3C//DTD SVG 1.1//EN" "http://www.w3.org/Graphics/SVG/1.1/DTD/svg11.dtd">
<svg version="1.1" id="Layer_1" xmlns="http://www.w3.org/2000/svg" xmlns:xlink="http://www.w3.org/1999/xlink" x="0px" y="0px"
	 width="721.974px" height="1000px" viewBox="0 0 721.974 1000" enable-background="new 0 0 721.974 1000" xml:space="preserve">
<g>
	<g>
		<path d="M124.198,845.629v25.764H86.835c-4.516,0-8.176,3.662-8.176,8.157V998.25H45.721V879.55c0-4.495-3.642-8.157-8.157-8.157
			H0v-16.276c0-5.245,4.261-9.487,9.505-9.487H124.198z"/>
		<g>
			<path d="M148.221,845.629c-5.244,0-9.505,4.242-9.505,9.487v16.276h34.361v-25.764H148.221z"/>
		</g>
		<g>
			<path d="M148.221,892.334c-5.244,0-9.505,4.244-9.505,9.487v96.428h34.361V892.334H148.221L148.221,892.334z"/>
		</g>
		<path d="M300.963,998.25h-33.867l-29.715-46.212c-0.565-0.855-1.53-1.42-2.622-1.42c-1.749,0-3.15,1.403-3.15,3.132v44.5H197.25
			V855.117c0-5.245,4.261-9.487,9.504-9.487h24.854v77.64c0,1.931,1.566,3.497,3.478,3.497c0.874,0,1.675-0.311,2.295-0.876
			l29.606-34.888h31.117c0,0-33.976,43.046-34.049,43.137c-0.838,1.001-1.329,2.276-1.329,3.677c0,0.894,0.2,1.749,0.564,2.496
			L300.963,998.25z"/>
		<path d="M485.421,845.629v25.764h-37.363c-4.515,0-8.175,3.662-8.175,8.157V998.25h-32.939V879.55
			c0-4.495-3.641-8.157-8.156-8.157h-37.564v-16.276c0-5.245,4.262-9.487,9.506-9.487H485.421z"/>
		<path d="M721.974,998.25h-33.866l-29.716-46.212c-0.565-0.855-1.529-1.42-2.622-1.42c-1.748,0-3.15,1.403-3.15,3.132v44.5h-34.358
			V855.117c0-5.245,4.261-9.487,9.505-9.487h24.854v77.64c0,1.931,1.566,3.497,3.478,3.497c0.874,0,1.676-0.311,2.295-0.876
			l29.606-34.888h31.118c0,0-33.977,43.046-34.05,43.137c-0.838,1.001-1.329,2.276-1.329,3.677c0,0.894,0.2,1.749,0.563,2.496
			L721.974,998.25z"/>
		<path d="M264.292,933.866l-0.219,0.273h-0.018C264.128,934.048,264.201,933.957,264.292,933.866z"/>
		<path d="M264.11,941.567c-0.31-0.362-0.583-0.765-0.783-1.201L264.11,941.567z"/>
		<path d="M541.666,889.499c0,0-55.025-0.015-55.025,55.477c0,55.048,55.025,55.025,55.025,55.025s55.025,0.022,55.025-55.025
			C596.691,889.484,541.666,889.499,541.666,889.499z M541.967,980.304h-0.602c0,0-22.25,0.079-22.25-35.347
			c0-35.464,22.25-35.464,22.25-35.464h0.602c0,0,22.252,0,22.252,35.464C564.219,980.383,541.967,980.304,541.967,980.304z"/>
	</g>
	<path fill="#FF004F" d="M541.913,249.103c44.556,31.833,99.143,50.564,158.095,50.564V186.279
		c-11.158,0.004-22.286-1.159-33.201-3.472v89.253c-58.947,0-113.526-18.731-158.095-50.565v231.39
		c0,115.753-93.883,209.583-209.689,209.583c-43.208,0-83.371-13.055-116.734-35.447c38.079,38.912,91.179,63.055,149.927,63.055
		c115.815,0,209.701-93.831,209.701-209.587V249.103H541.913z M582.869,134.709c-22.771-24.863-37.72-56.997-40.956-92.522V27.603
		h-31.462C518.369,72.752,545.382,111.328,582.869,134.709L582.869,134.709z M255.534,538.198
		c-12.721-16.673-19.597-37.07-19.566-58.041c0-52.942,42.943-95.865,95.922-95.865c9.872-0.007,19.686,1.507,29.097,4.49v-115.92
		c-10.996-1.506-22.092-2.144-33.188-1.909v90.227c-9.416-2.983-19.233-4.498-29.109-4.491c-52.979,0-95.918,42.923-95.918,95.87
		C202.771,489.994,224.235,522.41,255.534,538.198z"/>
	<path d="M508.712,221.495c44.568,31.833,99.147,50.565,158.095,50.565v-89.253c-32.903-7.002-62.034-24.192-83.938-48.098
		c-37.487-23.381-64.5-61.957-72.418-107.106H427.81v452.88c-0.188,52.795-43.058,95.544-95.923,95.544
		c-31.153,0-58.83-14.841-76.356-37.829c-31.3-15.79-52.763-48.205-52.763-85.64c0-52.946,42.939-95.869,95.918-95.869
		c10.15,0,19.933,1.58,29.11,4.49v-90.226c-113.771,2.349-205.272,95.263-205.272,209.534c0,57.042,22.787,108.755,59.766,146.536
		c33.364,22.392,73.526,35.449,116.734,35.449c115.806,0,209.689-93.836,209.689-209.584V221.495L508.712,221.495z"/>
	<path fill="#00F2EA" d="M666.806,182.807v-24.134c-29.673,0.045-58.761-8.261-83.937-23.968
		C605.155,159.091,634.5,175.908,666.806,182.807z M510.451,27.603c-0.758-4.314-1.337-8.658-1.739-13.02V0H394.604v452.884
		c-0.184,52.792-43.049,95.541-95.918,95.541c-15.524,0-30.176-3.682-43.155-10.227c17.527,22.988,45.203,37.829,76.356,37.829
		c52.861,0,95.734-42.747,95.922-95.543V27.603H510.451z M327.798,270.953V245.26c-9.534-1.304-19.148-1.956-28.771-1.95
		c-115.819,0-209.701,93.833-209.701,209.575c0,72.566,36.898,136.516,92.966,174.135c-36.979-37.782-59.766-89.496-59.766-146.537
		C122.527,366.216,214.024,273.302,327.798,270.953z"/>
</g>
</svg>
